<?xml version="1.0" encoding="UTF-8"?> <svg xmlns="http://www.w3.org/2000/svg" id="Layer_3" height="512px" viewBox="0 0 64 64" width="512px"> <g> <path d="m63 28c0-1.654-1.346-3-3-3h-12.112c-.3-1.466-1.237-2.735-2.613-3.438-.256-.131-.45-.418-.519-.77l-.622-3.196c.597-.227 1.164-.541 1.669-.956 1.396-1.145 2.197-2.836 2.197-4.64 0-.441-.049-.88-.146-1.305-.513-2.25-.854-4.139-.854-6.047v-2.648c0-.552-.448-1-1-1h-8c-.552 0-1 .448-1 1v2.426c0 2.168-.428 4.313-.866 6.324-.185.846-.18 1.716.015 2.586.433 1.939 1.86 3.547 3.677 4.256l-.595 3.211c-.064.346-.253.63-.506.759-1.375.703-2.312 1.972-2.612 3.438h-8.225c-.3-1.466-1.237-2.735-2.613-3.438-.256-.131-.45-.418-.519-.77l-.622-3.196c.597-.227 1.164-.541 1.669-.956 1.396-1.145 2.197-2.836 2.197-4.64 0-.441-.049-.88-.146-1.305-.513-2.25-.854-4.139-.854-6.047v-2.648c0-.552-.448-1-1-1h-8c-.552 0-1 .448-1 1v2.426c0 2.168-.428 4.313-.866 6.324-.185.846-.18 1.716.015 2.586.433 1.939 1.86 3.547 3.677 4.256l-.595 3.211c-.064.346-.253.63-.506.759-1.375.703-2.312 1.972-2.612 3.438h-12.113c-1.654 0-3 1.346-3 3 0 1.506 1.119 2.745 2.568 2.956 3.742 3.618 8.569 5.708 13.739 5.986l-9.947 8.29-6 5c-.228.19-.36.471-.36.768v11c0 .552.448 1 1 1h3c.265 0 .52-.105.707-.293l2.921-2.921 10.663-6.786h15.709c.189 0 .374-.054.534-.154l17.798-11.241c1.044-.66 1.668-1.791 1.668-3.026 0-1.288-.691-2.41-1.715-3.04 2.635-1.022 5.059-2.564 7.147-4.582 1.449-.212 2.568-1.451 2.568-2.957zm-17.485 7h-27.03c-4.323 0-8.421-1.417-11.797-4h50.624c-3.377 2.583-7.474 4-11.797 4zm-6.515-32h6v1.465l-1.378.919c-.287.189-.671.152-.915-.091-.915-.916-2.362-1.058-3.438-.34l-.301.2c.009-.243.032-.482.032-.727zm-.899 9.899c-.13-.583-.135-1.164-.013-1.724.243-1.116.478-2.275.651-3.466l1.639-1.093c.286-.191.671-.153.915.091.916.916 2.362 1.059 3.438.34l.4-.267c.148 1.38.415 2.788.772 4.36.065.28.097.569.097.86 0 1.203-.534 2.331-1.465 3.094-.944.775-2.14 1.068-3.368.822-1.497-.297-2.729-1.51-3.066-3.017zm1.533 10.444c.802-.41 1.387-1.223 1.563-2.176l.589-3.178c.068.002.136.01.204.01.061 0 .121-.014.182-.015l.621 3.191c.188.964.76 1.754 1.572 2.169.697.356 1.211.952 1.462 1.657h-7.655c.252-.706.766-1.302 1.462-1.658zm-20.634-20.343h6v1.465l-1.378.919c-.288.189-.671.152-.915-.091-.916-.916-2.362-1.058-3.438-.34l-.301.2c.009-.243.032-.482.032-.727zm-.899 9.899c-.13-.583-.135-1.164-.013-1.724.243-1.116.478-2.275.651-3.466l1.639-1.093c.286-.191.67-.153.915.091.915.916 2.362 1.059 3.438.34l.4-.267c.148 1.38.415 2.788.772 4.36.065.28.097.569.097.86 0 1.203-.534 2.331-1.465 3.094-.945.775-2.141 1.068-3.368.822-1.497-.297-2.729-1.51-3.066-3.017zm1.533 10.444c.802-.41 1.387-1.223 1.563-2.176l.589-3.178c.068.002.136.01.204.01.061 0 .121-.014.182-.015l.621 3.191c.188.964.76 1.754 1.572 2.169.697.356 1.211.952 1.462 1.657h-7.655c.252-.706.766-1.302 1.462-1.658zm-15.634 3.657h13 10 10 10 13c.551 0 1 .449 1 1s-.449 1-1 1h-56c-.551 0-1-.449-1-1s.449-1 1-1zm.586 34h-1.586v-9.532l4-3.333v10.451zm47.678-21.087-17.554 11.087h-15.71c-.19 0-.376.054-.537.156l-9.463 6.022v-10.71l9.899-8.25c1.674-1.396 4.203-1.591 6.073-.469l7.273 4.364c.466.28.755.79.755 1.333 0 .857-.697 1.554-1.554 1.554h-6.446v2h8c.178 0 .354-.048.507-.138l16.394-9.644c.243-.142.52-.218.801-.218h.719c.871 0 1.579.708 1.579 1.579 0 .545-.275 1.044-.736 1.334zm-17.271 3.754c.005-.073.007-.147.007-.221 0-1.241-.661-2.408-1.725-3.047l-5.665-3.399h17.904c.298 0 .591-.031.887-.043z" data-original="#000000" class="active-path" data-old_color="#000000" fill="#1C1C1C"></path> </g> </svg> 